<svg xmlns="http://www.w3.org/2000/svg" viewBox="0 0 64 64" x="0px" y="0px" preserveAspectRatio="none" width="100%" height="100%" class="" fill="rgba(5, 31, 77, 1.0)"><g><path d="M56.92,19.29H54.64V17.55a1,1,0,0,0-1-1H38.58A10,10,0,0,0,32,19a10,10,0,0,0-6.58-2.48H10.36a1,1,0,0,0-1,1v1.74H7.08a1,1,0,0,0-1,1V46.45a1,1,0,0,0,1,1H56.92a1,1,0,0,0,1-1V20.29A1,1,0,0,0,56.92,19.29ZM33,20.81l.19-.17a8,8,0,0,1,5.39-2.09H52.64V40.63H38.58A10,10,0,0,0,33,42.33ZM11.36,18.55H25.42a8,8,0,0,1,5.39,2.09l.19.17V42.34a10,10,0,0,0-5.58-1.71H11.36Zm44.56,26.9H8.08V21.29H9.36V41.63a1,1,0,0,0,1,1H25.42a8,8,0,0,1,5.39,2.09l.52.47h0a.78.78,0,0,0,.26.17h0a.94.94,0,0,0,.76,0l.11-.07a1.08,1.08,0,0,0,.18-.11l.52-.47a8,8,0,0,1,5.39-2.09H53.64a1,1,0,0,0,1-1V21.29h1.28ZM15.07,23a1,1,0,0,1,1-1H26.29a1,1,0,0,1,0,2H16.07A1,1,0,0,1,15.07,23Zm0,4.13a1,1,0,0,1,1-1H26.29a1,1,0,0,1,0,2H16.07A1,1,0,0,1,15.07,27.17Zm0,4.13a1,1,0,0,1,1-1H26.29a1,1,0,1,1,0,2H16.07A1,1,0,0,1,15.07,31.3ZM36.71,23a1,1,0,0,1,1-1H47.93a1,1,0,0,1,0,2H37.71A1,1,0,0,1,36.71,23Zm0,4.13a1,1,0,0,1,1-1H47.93a1,1,0,0,1,0,2H37.71A1,1,0,0,1,36.71,27.17ZM47.93,32.3H37.71a1,1,0,0,1,0-2H47.93a1,1,0,1,1,0,2Z"></path></g></svg>