<svg xmlns="http://www.w3.org/2000/svg" xmlns:xlink="http://www.w3.org/1999/xlink" version="1.1" x="0px" y="0px" viewBox="0 0 100 100" style="enable-background:new 0 0 100 100;" xml:space="preserve" preserveAspectRatio="none" width="100%" height="100%" class="" fill="rgba(5, 31, 77, 1.0)"><path d="M80.4,43.8c-5.7,7.8-14.1,13.4-24.4,15v-3c0-3.3-2.6-5.9-5.9-5.9s-5.9,2.7-5.9,5.9v3c-10-1.6-18.4-7-24.2-14.7  c-1-1.4-3.2-0.6-3.2,1.1v0c0,0.4,0.1,0.8,0.4,1.1c6.4,8.6,16,14.5,27,16.1v3.8c0,3.3,2.6,5.9,5.9,5.9s5.9-2.7,5.9-5.9v-3.8  c11.2-1.6,21-7.8,27.2-16.5c0.2-0.3,0.3-0.7,0.3-1C83.6,43.1,81.4,42.4,80.4,43.8z M52.6,66.1c0,1.3-1.1,2.4-2.4,2.4  c-1.3,0-2.4-1.1-2.4-2.4v-3.4v-3.5v-3.4c0-1.3,1.1-2.4,2.4-2.4c1.3,0,2.4,1.1,2.4,2.4v3.4v3.5V66.1z M79.2,30.2h-3.9V19.5  c0-4.5-3.7-8.2-8.2-8.2h-34c-4.5,0-8.2,3.7-8.2,8.2v6.1c0,0.9,0.8,1.7,1.7,1.7c0.9,0,1.7-0.8,1.7-1.7v-6.1c0-2.6,2.1-4.8,4.8-4.8h34  c2.6,0,4.8,2.1,4.8,4.8v10.8h-0.6h0h-42h-3.4h-4.5c-6.1,0-11.2,4.9-11.2,10.9v37.2c0,6.1,5.2,10.7,11.2,10.7h57.7  c6.1,0,10.8-4.7,10.8-10.7V41.2C90,35.1,85.3,30.2,79.2,30.2z M89.6,59.6 M86.6,58v3.4v17c0,4.2-3.2,7.6-7.3,7.6H21.5  c-4.2,0-7.8-3.4-7.8-7.6V61.6v0v-3.4v0v-17c0-4.2,3.6-7.5,7.8-7.5h4.4h0.3h48.7h0h4.4c4.2,0,7.3,3.3,7.3,7.5V58"></path></svg>